<svg width="717" height="717" viewBox="0 0 717 717" fill="none" xmlns="http://www.w3.org/2000/svg">
<path d="M25 225C25 130.719 25 83.5787 54.2893 54.2893C83.5787 25 130.719 25 225 25H258.333C352.613 25 399.753 25 429.043 54.2893C458.333 83.5787 458.333 130.719 458.333 225V491.667C458.333 585.947 458.333 633.087 429.043 662.377C399.753 691.667 352.613 691.667 258.333 691.667H225C130.719 691.667 83.5787 691.667 54.2893 662.377C25 633.087 25 585.947 25 491.667V225Z" stroke="white" stroke-width="50"/>
<path d="M541.667 291.893C603.657 292.79 638.8 297.39 662.376 320.967C691.666 350.257 691.666 397.397 691.666 491.677C691.666 585.957 691.666 633.1 662.376 662.387C638.8 685.967 603.657 690.563 541.667 691.46" stroke="white" stroke-width="50" stroke-linecap="round"/>
<path opacity="0.5" d="M325 125H158.333" stroke="white" stroke-width="50" stroke-linecap="round"/>
<path opacity="0.5" d="M591.667 558.333V425" stroke="white" stroke-width="50" stroke-linecap="round"/>
<path opacity="0.5" d="M291.667 541.667C291.667 569.28 269.281 591.667 241.667 591.667C214.052 591.667 191.667 569.28 191.667 541.667C191.667 514.053 214.052 491.667 241.667 491.667C269.281 491.667 291.667 514.053 291.667 541.667Z" stroke="white" stroke-width="50"/>
<path opacity="0.5" d="M641.667 191.199L691.667 225C691.667 124.511 619.59 41.0917 525 25" stroke="white" stroke-width="50" stroke-linecap="round" stroke-linejoin="round"/>
</svg>
